# xmcd CD database file
#
# Track frame offsets:
#	150
#	26681
#	44875
#	61541
#	81511
#	101392
#	114670
#	127741
#	147846
#	169297
#	199138
#	218402
#	233094
#	250880
#	262169
#
# Disc length: 3792 seconds
#
# Revision: 0
# Processed by: cddbd v1.4PL0 Copyright (c) Steve Scherf et al.
# Submitted via: CDex 1.50Beta7
#
DISCID=d40ece0f
DTITLE=Abi Wallenstein - Joja Wendt - Good morning Blues
DYEAR=1900
DGENRE=Blues
TTITLE0=Can't be satisfied
TTITLE1=Rocking Shoes
TTITLE2=Good morning Blues
TTITLE3=The thrill is gone
TTITLE4=Mojo Boogie
TTITLE5=Same old Blues
TTITLE6=Kiss
TTITLE7=Sunny land blow
TTITLE8=Killing floor
TTITLE9=Alabama
TTITLE10=Keep your hands off her
TTITLE11=Kansas City
TTITLE12=Shake your Boogie
TTITLE13=Boogie man
TTITLE14=Got my mojo working
EXTD=
EXTT0=
EXTT1=
EXTT2=
EXTT3=
EXTT4=
EXTT5=
EXTT6=
EXTT7=
EXTT8=
EXTT9=
EXTT10=
EXTT11=
EXTT12=
EXTT13=
EXTT14=
PLAYORDER=
